<svg xmlns="http://www.w3.org/2000/svg" xmlns:xlink="http://www.w3.org/1999/xlink" width="1024" zoomAndPan="magnify" viewBox="0 0 768 767.999994" height="1024" preserveAspectRatio="xMidYMid meet" version="1.0"><defs><g/></defs><g fill="#000000" fill-opacity="1"><g transform="translate(116.124696, 494.219651)"><g><path d="M 101.0625 4.15625 C 74.414062 4.15625 52.988281 -2.609375 36.78125 -16.140625 C 20.570312 -29.679688 12.253906 -48.710938 11.828125 -73.234375 L 67.15625 -73.234375 C 67.582031 -63.003906 70.617188 -55.0625 76.265625 -49.40625 C 81.921875 -43.757812 90.082031 -40.9375 100.75 -40.9375 C 110.769531 -40.9375 118.335938 -42.851562 123.453125 -46.6875 C 128.566406 -50.53125 131.125 -55.753906 131.125 -62.359375 C 131.125 -69.609375 127.816406 -75.207031 121.203125 -79.15625 C 114.597656 -83.101562 104.15625 -87.316406 89.875 -91.796875 C 74.945312 -96.484375 62.628906 -101.171875 52.921875 -105.859375 C 43.222656 -110.554688 34.910156 -117.59375 27.984375 -126.96875 C 21.054688 -136.351562 17.59375 -148.722656 17.59375 -164.078125 C 17.59375 -176.441406 21.054688 -187.472656 27.984375 -197.171875 C 34.910156 -206.867188 44.554688 -214.4375 56.921875 -219.875 C 69.296875 -225.3125 83.476562 -228.03125 99.46875 -228.03125 C 113.96875 -228.03125 127.503906 -225.363281 140.078125 -220.03125 C 152.660156 -214.707031 162.894531 -206.554688 170.78125 -195.578125 C 178.675781 -184.597656 182.726562 -171.109375 182.9375 -155.109375 L 128.578125 -155.109375 C 128.359375 -163.003906 125.847656 -169.613281 121.046875 -174.9375 C 116.253906 -180.269531 109.0625 -182.9375 99.46875 -182.9375 C 91.15625 -182.9375 84.703125 -181.125 80.109375 -177.5 C 75.523438 -173.875 73.234375 -168.972656 73.234375 -162.796875 C 73.234375 -155.546875 76.535156 -150 83.140625 -146.15625 C 89.753906 -142.320312 100.097656 -138.164062 114.171875 -133.6875 C 129.097656 -129.207031 141.410156 -124.625 151.109375 -119.9375 C 160.816406 -115.25 169.1875 -108.160156 176.21875 -98.671875 C 183.257812 -89.179688 186.78125 -76.65625 186.78125 -61.09375 C 186.78125 -49.144531 183.421875 -38.210938 176.703125 -28.296875 C 169.984375 -18.390625 160.175781 -10.503906 147.28125 -4.640625 C 134.382812 1.222656 118.976562 4.15625 101.0625 4.15625 Z M 101.0625 4.15625 "/></g></g></g><g fill="#000000" fill-opacity="1"><g transform="translate(314.732364, 494.219651)"><g><path d="M 234.75 -85.078125 L 274.40625 -223.875 L 333.265625 -223.875 L 260.34375 0 L 211.71875 0 L 168.546875 -143.609375 L 125.046875 0 L 76.765625 0 L 3.84375 -223.875 L 63 -223.875 L 102.671875 -85.71875 L 145.515625 -223.875 L 191.890625 -223.875 Z M 234.75 -85.078125 "/></g></g></g></svg>